<svg width="48" height="48" viewBox="0 0 48 48" fill="none" xmlns="http://www.w3.org/2000/svg">
<path d="M18.265 15.807L19.412 17.446C18.0182 18.4218 16.9718 19.8165 16.4247 21.4276C15.8777 23.0387 15.8586 24.7822 16.3702 26.4049C16.8817 28.0276 17.8973 29.445 19.2694 30.4511C20.6415 31.4572 22.2986 31.9996 24 31.9996C25.7014 31.9996 27.3585 31.4572 28.7306 30.4511C30.1027 29.445 31.1183 28.0276 31.6299 26.4049C32.1414 24.7822 32.1223 23.0387 31.5753 21.4276C31.0282 19.8165 29.9818 18.4218 28.588 17.446L29.735 15.807C31.053 16.7284 32.1289 17.9545 32.8715 19.3809C33.614 20.8073 34.0012 22.3919 34 24C34 29.523 29.523 34 24 34C18.477 34 14 29.523 14 24C13.9988 22.3919 14.386 20.8073 15.1285 19.3809C15.8711 17.9545 16.9471 16.7284 18.265 15.807ZM23 24V14H25V24H23Z" fill="#AEAEB3"/>
</svg>
